<?xml version="1.0" encoding="UTF-8" standalone="no"?>
<!-- Created with Inkscape (http://www.inkscape.org/) -->
<svg xmlns:dc="http://purl.org/dc/elements/1.1/" xmlns:cc="http://creativecommons.org/ns#" xmlns:rdf="http://www.w3.org/1999/02/22-rdf-syntax-ns#" xmlns:svg="http://www.w3.org/2000/svg" xmlns="http://www.w3.org/2000/svg" xmlns:sodipodi="http://sodipodi.sourceforge.net/DTD/sodipodi-0.dtd" xmlns:inkscape="http://www.inkscape.org/namespaces/inkscape" width="643.08752" height="481" id="svg2" version="1.1" inkscape:version="0.47 r22583" sodipodi:docname="hammer_and_sickle_25416.svg">
  <defs id="defs4">
    <inkscape:perspective sodipodi:type="inkscape:persp3d" inkscape:vp_x="0 : 526.18109 : 1" inkscape:vp_y="0 : 1000 : 0" inkscape:vp_z="744.09448 : 526.18109 : 1" inkscape:persp3d-origin="372.04724 : 350.78739 : 1" id="perspective10"/>
    <inkscape:perspective id="perspective2824" inkscape:persp3d-origin="0.5 : 0.33333333 : 1" inkscape:vp_z="1 : 0.5 : 1" inkscape:vp_y="0 : 1000 : 0" inkscape:vp_x="0 : 0.5 : 1" sodipodi:type="inkscape:persp3d"/>
    <inkscape:perspective id="perspective2953" inkscape:persp3d-origin="0.5 : 0.33333333 : 1" inkscape:vp_z="1 : 0.5 : 1" inkscape:vp_y="0 : 1000 : 0" inkscape:vp_x="0 : 0.5 : 1" sodipodi:type="inkscape:persp3d"/>
  </defs>
  <sodipodi:namedview id="base" pagecolor="#ffffff" bordercolor="#666666" borderopacity="1.0" inkscape:pageopacity="0.0" inkscape:pageshadow="2" inkscape:zoom="0.17203101" inkscape:cx="-715.78991" inkscape:cy="-377.01109" inkscape:document-units="px" inkscape:current-layer="layer1" showgrid="false" inkscape:window-width="1440" inkscape:window-height="819" inkscape:window-x="0" inkscape:window-y="25" inkscape:window-maximized="1">
    <inkscape:grid type="xygrid" id="grid2832" empspacing="5" visible="true" enabled="true" snapvisiblegridlinesonly="true"/>
  </sodipodi:namedview>
  <g inkscape:label="Ebene 1" inkscape:groupmode="layer" id="layer1" transform="translate(-2727.8135,-696.99369)">
    <path id="path2968" d="m 3172.2654,705.68926 -198.9133,5.60235 -6.2951,65.11969 77.0473,-2.07829 c 0,0 -3.4936,63.00816 -9.0963,107.83002 -2.2654,18.1238 -8.5873,69.80386 -15.1203,123.43217 -67.0801,-13.93338 -88.9172,-54.7832 -101.1434,-77.19779 -16.8082,-30.81503 -11.2047,-89.63747 -11.2047,-89.63747 l -147.0764,-7.01798 -21.0239,68.64375 116.2637,-12.62033 c 0,0 -10.4335,80.06134 26.6261,125.35992 26.2534,32.0899 67.6245,66.9588 126.6551,82.2581 -3.6824,30.3025 -9.0059,73.9147 -9.0059,73.9147 l 85.4508,-1.3855 c 0,0 1.9923,-28.5258 4.5481,-65.0595 0.3519,-0.02 0.7014,-0.039 1.0542,-0.06 104.4599,-6.485 186.0373,-58.9861 234.6056,-123.97443 47.8193,-63.98584 39.3103,-129.39011 7.7108,-184.87728 -34.4367,-60.46922 -103.6433,-85.45077 -103.6433,-85.45077 0,0 43.1973,40.45778 58.1017,90.33023 18.2089,60.92971 -24.4925,191.19376 -171.5642,208.70225 -6.8316,0.8133 -13.4346,1.4672 -19.789,1.9277 4.7187,-68.57475 9.3197,-136.89509 9.9698,-152.49812 1.4007,-33.61641 8.4035,-83.34237 8.4035,-83.34237 l 113.4625,-0.69276 -56.0234,-67.2281 z" style="fill:#ff0000;stroke:none"/>
  </g>
  <metadata>
    <rdf:RDF>
      <cc:Work>
        <dc:format>image/svg+xml</dc:format>
        <dc:type rdf:resource="http://purl.org/dc/dcmitype/StillImage"/>
        <cc:license rdf:resource="http://creativecommons.org/licenses/publicdomain/"/>
        <dc:publisher>
          <cc:Agent rdf:about="http://openclipart.org/">
            <dc:title>Open Clip Art Library</dc:title>
          </cc:Agent>
        </dc:publisher>
        <dc:title>Hammer and Sickle</dc:title>
        <dc:date>2013-03-03T11:39:51</dc:date>
        <dc:description/>
        <dc:source>http://openclipart.org/detail/175437/hammer-and-sickle-by-worker-175437</dc:source>
        <dc:creator>
          <cc:Agent>
            <dc:title>worker</dc:title>
          </cc:Agent>
        </dc:creator>
        <dc:subject>
          <rdf:Bag>
            <rdf:li>and</rdf:li>
            <rdf:li>class</rdf:li>
            <rdf:li>clip art</rdf:li>
            <rdf:li>clipart</rdf:li>
            <rdf:li>communism</rdf:li>
            <rdf:li>hammer</rdf:li>
            <rdf:li>proletariat</rdf:li>
            <rdf:li>revolution</rdf:li>
            <rdf:li>sickle</rdf:li>
            <rdf:li>socialism</rdf:li>
            <rdf:li>star</rdf:li>
            <rdf:li>worker</rdf:li>
            <rdf:li>working</rdf:li>
          </rdf:Bag>
        </dc:subject>
      </cc:Work>
      <cc:License rdf:about="http://creativecommons.org/licenses/publicdomain/">
        <cc:permits rdf:resource="http://creativecommons.org/ns#Reproduction"/>
        <cc:permits rdf:resource="http://creativecommons.org/ns#Distribution"/>
        <cc:permits rdf:resource="http://creativecommons.org/ns#DerivativeWorks"/>
      </cc:License>
    </rdf:RDF>
  </metadata>
</svg>
